<svg width="17" height="16" viewBox="0 0 17 16" fill="none" xmlns="http://www.w3.org/2000/svg">
<g clip-path="url(#clip0_128_238)">
<path d="M14.417 4.74052C14.427 4.88264 14.427 5.0248 14.427 5.16692C14.427 9.50192 11.1498 14.4969 5.15986 14.4969C3.31448 14.4969 1.60022 13.9588 0.158203 13.0248C0.420396 13.0552 0.67247 13.0654 0.944752 13.0654C2.46741 13.0654 3.8691 12.5476 4.98843 11.6644C3.5565 11.6339 2.3565 10.6898 1.94305 9.39027C2.14475 9.4207 2.34642 9.44102 2.5582 9.44102C2.85063 9.44102 3.14308 9.40039 3.41533 9.32936C1.92291 9.02477 0.803551 7.70498 0.803551 6.11108V6.07048C1.23715 6.31414 1.74139 6.46642 2.2758 6.4867C1.39849 5.89786 0.823727 4.8928 0.823727 3.75573C0.823727 3.14661 0.985041 2.58823 1.26741 2.10092C2.87077 4.09077 5.28086 5.39023 7.98334 5.53239C7.93293 5.28873 7.90266 5.03495 7.90266 4.78114C7.90266 2.97402 9.35477 1.50195 11.1598 1.50195C12.0976 1.50195 12.9446 1.89789 13.5396 2.53748C14.2757 2.39536 14.9816 2.12123 15.6068 1.74561C15.3648 2.50705 14.8505 3.14664 14.1749 3.5527C14.8304 3.48167 15.4657 3.29889 16.0505 3.04511C15.6069 3.69483 15.0522 4.27348 14.417 4.74052Z" fill="black"/>
</g>
<defs>
<clipPath id="clip0_128_238">
<rect width="15.8924" height="16" fill="white" transform="translate(0.158203)"/>
</clipPath>
</defs>
</svg>
